{
 "cells": [
  {
   "cell_type": "markdown",
   "id": "b50ff827",
   "metadata": {},
   "source": [
    "**Извлекаем информацию о видео при помощи ffprobe**"
   ]
  },
  {
   "cell_type": "code",
   "execution_count": 32,
   "id": "1eba9f3e",
   "metadata": {},
   "outputs": [
    {
     "name": "stdout",
     "output_type": "stream",
     "text": [
      "{\n",
      "    \"streams\": [\n",
      "        {\n",
      "            \"index\": 0,\n",
      "            \"codec_name\": \"h264\",\n",
      "            \"codec_long_name\": \"H.264 / AVC / MPEG-4 AVC / MPEG-4 part 10\",\n",
      "            \"profile\": \"High 4:4:4 Predictive\",\n",
      "            \"codec_type\": \"video\",\n",
      "            \"codec_time_base\": \"1/60\",\n",
      "            \"codec_tag_string\": \"avc1\",\n",
      "            \"codec_tag\": \"0x31637661\",\n",
      "            \"width\": 1280,\n",
      "            \"height\": 720,\n",
      "            \"coded_width\": 1280,\n",
      "            \"coded_height\": 720,\n",
      "            \"closed_captions\": 0,\n",
      "            \"has_b_frames\": 2,\n",
      "            \"pix_fmt\": \"yuv444p\",\n",
      "            \"level\": 31,\n",
      "            \"chroma_location\": \"left\",\n",
      "            \"refs\": 1,\n",
      "            \"is_avc\": \"true\",\n",
      "            \"nal_length_size\": \"4\",\n",
      "            \"r_frame_rate\": \"30/1\",\n",
      "            \"avg_frame_rate\": \"30/1\",\n",
      "            \"time_base\": \"1/15360\",\n",
      "            \"start_pts\": 0,\n",
      "            \"start_time\": \"0.000000\",\n",
      "            \"duration_ts\": 153600,\n",
      "            \"duration\": \"10.000000\",\n",
      "            \"bit_rate\": \"2775372\",\n",
      "            \"bits_per_raw_sample\": \"8\",\n",
      "            \"nb_frames\": \"300\",\n",
      "            \"disposition\": {\n",
      "                \"default\": 1,\n",
      "                \"dub\": 0,\n",
      "                \"original\": 0,\n",
      "                \"comment\": 0,\n",
      "                \"lyrics\": 0,\n",
      "                \"karaoke\": 0,\n",
      "                \"forced\": 0,\n",
      "                \"hearing_impaired\": 0,\n",
      "                \"visual_impaired\": 0,\n",
      "                \"clean_effects\": 0,\n",
      "                \"attached_pic\": 0,\n",
      "                \"timed_thumbnails\": 0\n",
      "            },\n",
      "            \"tags\": {\n",
      "                \"language\": \"und\",\n",
      "                \"handler_name\": \"VideoHandler\"\n",
      "            }\n",
      "        }\n",
      "    ],\n",
      "    \"format\": {\n",
      "        \"filename\": \"examples/test.mp4\",\n",
      "        \"nb_streams\": 1,\n",
      "        \"nb_programs\": 0,\n",
      "        \"format_name\": \"mov,mp4,m4a,3gp,3g2,mj2\",\n",
      "        \"format_long_name\": \"QuickTime / MOV\",\n",
      "        \"start_time\": \"0.000000\",\n",
      "        \"duration\": \"10.000000\",\n",
      "        \"size\": \"3473697\",\n",
      "        \"bit_rate\": \"2778957\",\n",
      "        \"probe_score\": 100,\n",
      "        \"tags\": {\n",
      "            \"major_brand\": \"isom\",\n",
      "            \"minor_version\": \"512\",\n",
      "            \"compatible_brands\": \"isomiso2avc1mp41\",\n",
      "            \"encoder\": \"Lavf58.45.100\"\n",
      "        }\n",
      "    }\n",
      "}\n"
     ]
    }
   ],
   "source": [
    "video_path = 'examples/test.mp4'\n",
    "\n",
    "!ffprobe -loglevel 0 -print_format json -show_format -show_streams {video_path}"
   ]
  },
  {
   "cell_type": "markdown",
   "id": "406099ab",
   "metadata": {},
   "source": [
    "**Извлечение фреймов из видео**"
   ]
  },
  {
   "cell_type": "code",
   "execution_count": 33,
   "id": "780520e0",
   "metadata": {},
   "outputs": [
    {
     "name": "stdout",
     "output_type": "stream",
     "text": [
      "ffmpeg version 4.3.2-0york0~18.04 Copyright (c) 2000-2021 the FFmpeg developers\n",
      "  built with gcc 7 (Ubuntu 7.5.0-3ubuntu1~18.04)\n",
      "  configuration: --prefix=/usr --extra-version='0york0~18.04' --toolchain=hardened --libdir=/usr/lib/x86_64-linux-gnu --incdir=/usr/include/x86_64-linux-gnu --arch=amd64 --enable-gpl --disable-stripping --enable-avresample --disable-filter=resample --enable-gnutls --enable-ladspa --enable-libaom --enable-libass --enable-libbluray --enable-libbs2b --enable-libcaca --enable-libcdio --enable-libcodec2 --enable-libflite --enable-libfontconfig --enable-libfreetype --enable-libfribidi --enable-libgme --enable-libgsm --enable-libjack --enable-libmp3lame --enable-libmysofa --enable-libopenjpeg --enable-libopenmpt --enable-libopus --enable-libpulse --enable-librabbitmq --enable-librsvg --enable-librubberband --enable-libshine --enable-libsnappy --enable-libsoxr --enable-libspeex --enable-libsrt --enable-libssh --enable-libtheora --enable-libtwolame --enable-libvidstab --enable-libvorbis --enable-libvpx --enable-libwavpack --enable-libwebp --enable-libx265 --enable-libxml2 --enable-libxvid --enable-libzmq --enable-libzvbi --enable-lv2 --enable-omx --enable-openal --enable-opencl --enable-opengl --enable-sdl2 --enable-libzimg --enable-pocketsphinx --enable-libdc1394 --enable-libdrm --enable-libiec61883 --enable-chromaprint --enable-frei0r --enable-libx264 --enable-shared\n",
      "  libavutil      56. 51.100 / 56. 51.100\n",
      "  libavcodec     58. 91.100 / 58. 91.100\n",
      "  libavformat    58. 45.100 / 58. 45.100\n",
      "  libavdevice    58. 10.100 / 58. 10.100\n",
      "  libavfilter     7. 85.100 /  7. 85.100\n",
      "  libavresample   4.  0.  0 /  4.  0.  0\n",
      "  libswscale      5.  7.100 /  5.  7.100\n",
      "  libswresample   3.  7.100 /  3.  7.100\n",
      "  libpostproc    55.  7.100 / 55.  7.100\n",
      "Input #0, mov,mp4,m4a,3gp,3g2,mj2, from 'examples/test.mp4':\n",
      "  Metadata:\n",
      "    major_brand     : isom\n",
      "    minor_version   : 512\n",
      "    compatible_brands: isomiso2avc1mp41\n",
      "    encoder         : Lavf58.45.100\n",
      "  Duration: 00:00:10.00, start: 0.000000, bitrate: 2778 kb/s\n",
      "    Stream #0:0(und): Video: h264 (High 4:4:4 Predictive) (avc1 / 0x31637661), yuv444p, 1280x720, 2775 kb/s, 30 fps, 30 tbr, 15360 tbn, 60 tbc (default)\n",
      "    Metadata:\n",
      "      handler_name    : VideoHandler\n",
      "Stream mapping:\n",
      "  Stream #0:0 -> #0:0 (h264 (native) -> mjpeg (native))\n",
      "Press [q] to stop, [?] for help\n",
      "\u001b[1;34m[swscaler @ 0x5635d77a6cc0] \u001b[0m\u001b[0;33mdeprecated pixel format used, make sure you did set range correctly\n",
      "\u001b[0mOutput #0, image2, to 'examples/frames/img-%6d.jpeg':\n",
      "  Metadata:\n",
      "    major_brand     : isom\n",
      "    minor_version   : 512\n",
      "    compatible_brands: isomiso2avc1mp41\n",
      "    encoder         : Lavf58.45.100\n",
      "    Stream #0:0(und): Video: mjpeg, yuvj444p(pc), 1280x720, q=2-31, 200 kb/s, 30 fps, 30 tbn, 30 tbc (default)\n",
      "    Metadata:\n",
      "      handler_name    : VideoHandler\n",
      "      encoder         : Lavc58.91.100 mjpeg\n",
      "    Side data:\n",
      "      cpb: bitrate max/min/avg: 0/0/200000 buffer size: 0 vbv_delay: N/A\n",
      "frame=   90 fps=0.0 q=2.0 Lsize=N/A time=00:00:03.00 bitrate=N/A speed=5.14x    \n",
      "video:20897kB audio:0kB subtitle:0kB other streams:0kB global headers:0kB muxing overhead: unknown\n"
     ]
    }
   ],
   "source": [
    "video_path = 'examples/test.mp4'\n",
    "\n",
    "! ffmpeg -i {video_path} -vf fps=30 -ss 00:00:01 -t 00:00:3 -vsync 0 -qscale:v 2 examples/frames/img-%6d.jpeg"
   ]
  },
  {
   "cell_type": "markdown",
   "id": "1d45d049",
   "metadata": {},
   "source": [
    "**Извлечение фреймов из видео (с изменением разрешения)**"
   ]
  },
  {
   "cell_type": "code",
   "execution_count": 34,
   "id": "96dc16af",
   "metadata": {},
   "outputs": [
    {
     "name": "stdout",
     "output_type": "stream",
     "text": [
      "ffmpeg version 4.3.2-0york0~18.04 Copyright (c) 2000-2021 the FFmpeg developers\n",
      "  built with gcc 7 (Ubuntu 7.5.0-3ubuntu1~18.04)\n",
      "  configuration: --prefix=/usr --extra-version='0york0~18.04' --toolchain=hardened --libdir=/usr/lib/x86_64-linux-gnu --incdir=/usr/include/x86_64-linux-gnu --arch=amd64 --enable-gpl --disable-stripping --enable-avresample --disable-filter=resample --enable-gnutls --enable-ladspa --enable-libaom --enable-libass --enable-libbluray --enable-libbs2b --enable-libcaca --enable-libcdio --enable-libcodec2 --enable-libflite --enable-libfontconfig --enable-libfreetype --enable-libfribidi --enable-libgme --enable-libgsm --enable-libjack --enable-libmp3lame --enable-libmysofa --enable-libopenjpeg --enable-libopenmpt --enable-libopus --enable-libpulse --enable-librabbitmq --enable-librsvg --enable-librubberband --enable-libshine --enable-libsnappy --enable-libsoxr --enable-libspeex --enable-libsrt --enable-libssh --enable-libtheora --enable-libtwolame --enable-libvidstab --enable-libvorbis --enable-libvpx --enable-libwavpack --enable-libwebp --enable-libx265 --enable-libxml2 --enable-libxvid --enable-libzmq --enable-libzvbi --enable-lv2 --enable-omx --enable-openal --enable-opencl --enable-opengl --enable-sdl2 --enable-libzimg --enable-pocketsphinx --enable-libdc1394 --enable-libdrm --enable-libiec61883 --enable-chromaprint --enable-frei0r --enable-libx264 --enable-shared\n",
      "  libavutil      56. 51.100 / 56. 51.100\n",
      "  libavcodec     58. 91.100 / 58. 91.100\n",
      "  libavformat    58. 45.100 / 58. 45.100\n",
      "  libavdevice    58. 10.100 / 58. 10.100\n",
      "  libavfilter     7. 85.100 /  7. 85.100\n",
      "  libavresample   4.  0.  0 /  4.  0.  0\n",
      "  libswscale      5.  7.100 /  5.  7.100\n",
      "  libswresample   3.  7.100 /  3.  7.100\n",
      "  libpostproc    55.  7.100 / 55.  7.100\n",
      "Input #0, mov,mp4,m4a,3gp,3g2,mj2, from 'examples/test.mp4':\n",
      "  Metadata:\n",
      "    major_brand     : isom\n",
      "    minor_version   : 512\n",
      "    compatible_brands: isomiso2avc1mp41\n",
      "    encoder         : Lavf58.45.100\n",
      "  Duration: 00:00:10.00, start: 0.000000, bitrate: 2778 kb/s\n",
      "    Stream #0:0(und): Video: h264 (High 4:4:4 Predictive) (avc1 / 0x31637661), yuv444p, 1280x720, 2775 kb/s, 30 fps, 30 tbr, 15360 tbn, 60 tbc (default)\n",
      "    Metadata:\n",
      "      handler_name    : VideoHandler\n",
      "Stream mapping:\n",
      "  Stream #0:0 -> #0:0 (h264 (native) -> mjpeg (native))\n",
      "Press [q] to stop, [?] for help\n",
      "\u001b[1;34m[swscaler @ 0x55903937f340] \u001b[0m\u001b[0;33mdeprecated pixel format used, make sure you did set range correctly\n",
      "\u001b[0mOutput #0, image2, to 'examples/frames_hd/img-%6d.jpeg':\n",
      "  Metadata:\n",
      "    major_brand     : isom\n",
      "    minor_version   : 512\n",
      "    compatible_brands: isomiso2avc1mp41\n",
      "    encoder         : Lavf58.45.100\n",
      "    Stream #0:0(und): Video: mjpeg, yuvj444p(pc), 1920x1080, q=2-31, 200 kb/s, 1 fps, 1 tbn, 1 tbc (default)\n",
      "    Metadata:\n",
      "      handler_name    : VideoHandler\n",
      "      encoder         : Lavc58.91.100 mjpeg\n",
      "    Side data:\n",
      "      cpb: bitrate max/min/avg: 0/0/200000 buffer size: 0 vbv_delay: N/A\n",
      "frame=   10 fps=0.0 q=2.0 Lsize=N/A time=00:00:10.00 bitrate=N/A speed=22.8x    \n",
      "video:3711kB audio:0kB subtitle:0kB other streams:0kB global headers:0kB muxing overhead: unknown\n"
     ]
    }
   ],
   "source": [
    "video_path = 'examples/test.mp4'\n",
    "\n",
    "! ffmpeg -i {video_path} -vf fps=1 -s 1920x1080 -vsync 0 -qscale:v 2 examples/frames_hd/img-%6d.jpeg "
   ]
  },
  {
   "cell_type": "code",
   "execution_count": 35,
   "id": "76f58bdc",
   "metadata": {},
   "outputs": [
    {
     "name": "stdout",
     "output_type": "stream",
     "text": [
      "ffmpeg version 4.3.2-0york0~18.04 Copyright (c) 2000-2021 the FFmpeg developers\n",
      "  built with gcc 7 (Ubuntu 7.5.0-3ubuntu1~18.04)\n",
      "  configuration: --prefix=/usr --extra-version='0york0~18.04' --toolchain=hardened --libdir=/usr/lib/x86_64-linux-gnu --incdir=/usr/include/x86_64-linux-gnu --arch=amd64 --enable-gpl --disable-stripping --enable-avresample --disable-filter=resample --enable-gnutls --enable-ladspa --enable-libaom --enable-libass --enable-libbluray --enable-libbs2b --enable-libcaca --enable-libcdio --enable-libcodec2 --enable-libflite --enable-libfontconfig --enable-libfreetype --enable-libfribidi --enable-libgme --enable-libgsm --enable-libjack --enable-libmp3lame --enable-libmysofa --enable-libopenjpeg --enable-libopenmpt --enable-libopus --enable-libpulse --enable-librabbitmq --enable-librsvg --enable-librubberband --enable-libshine --enable-libsnappy --enable-libsoxr --enable-libspeex --enable-libsrt --enable-libssh --enable-libtheora --enable-libtwolame --enable-libvidstab --enable-libvorbis --enable-libvpx --enable-libwavpack --enable-libwebp --enable-libx265 --enable-libxml2 --enable-libxvid --enable-libzmq --enable-libzvbi --enable-lv2 --enable-omx --enable-openal --enable-opencl --enable-opengl --enable-sdl2 --enable-libzimg --enable-pocketsphinx --enable-libdc1394 --enable-libdrm --enable-libiec61883 --enable-chromaprint --enable-frei0r --enable-libx264 --enable-shared\n",
      "  libavutil      56. 51.100 / 56. 51.100\n",
      "  libavcodec     58. 91.100 / 58. 91.100\n",
      "  libavformat    58. 45.100 / 58. 45.100\n",
      "  libavdevice    58. 10.100 / 58. 10.100\n",
      "  libavfilter     7. 85.100 /  7. 85.100\n",
      "  libavresample   4.  0.  0 /  4.  0.  0\n",
      "  libswscale      5.  7.100 /  5.  7.100\n",
      "  libswresample   3.  7.100 /  3.  7.100\n",
      "  libpostproc    55.  7.100 / 55.  7.100\n",
      "Input #0, mov,mp4,m4a,3gp,3g2,mj2, from 'examples/test.mp4':\n",
      "  Metadata:\n",
      "    major_brand     : isom\n",
      "    minor_version   : 512\n",
      "    compatible_brands: isomiso2avc1mp41\n",
      "    encoder         : Lavf58.45.100\n",
      "  Duration: 00:00:10.00, start: 0.000000, bitrate: 2778 kb/s\n",
      "    Stream #0:0(und): Video: h264 (High 4:4:4 Predictive) (avc1 / 0x31637661), yuv444p, 1280x720, 2775 kb/s, 30 fps, 30 tbr, 15360 tbn, 60 tbc (default)\n",
      "    Metadata:\n",
      "      handler_name    : VideoHandler\n",
      "Stream mapping:\n",
      "  Stream #0:0 -> #0:0 (h264 (native) -> mjpeg (native))\n",
      "Press [q] to stop, [?] for help\n",
      "\u001b[1;34m[swscaler @ 0x555df221bb80] \u001b[0m\u001b[0;33mdeprecated pixel format used, make sure you did set range correctly\n",
      "\u001b[0mOutput #0, image2, to 'examples/frames_fps0p5/img-%5d.jpeg':\n",
      "  Metadata:\n",
      "    major_brand     : isom\n",
      "    minor_version   : 512\n",
      "    compatible_brands: isomiso2avc1mp41\n",
      "    encoder         : Lavf58.45.100\n",
      "    Stream #0:0(und): Video: mjpeg, yuvj444p(pc), 1280x720, q=2-31, 200 kb/s, 0.50 fps, 0.50 tbn, 0.50 tbc (default)\n",
      "    Metadata:\n",
      "      handler_name    : VideoHandler\n",
      "      encoder         : Lavc58.91.100 mjpeg\n",
      "    Side data:\n",
      "      cpb: bitrate max/min/avg: 0/0/200000 buffer size: 0 vbv_delay: N/A\n",
      "frame=    7 fps=5.7 q=2.0 Lsize=N/A time=00:00:14.00 bitrate=N/A dup=0 drop=293 speed=11.3x    \n",
      "video:1581kB audio:0kB subtitle:0kB other streams:0kB global headers:0kB muxing overhead: unknown\n"
     ]
    }
   ],
   "source": [
    "video_path = 'examples/test.mp4'\n",
    "\n",
    "!ffmpeg -i {video_path} -r 0.5 -qscale:v 2 examples/frames_fps0p5/img-%5d.jpeg"
   ]
  },
  {
   "cell_type": "markdown",
   "id": "57f782d1",
   "metadata": {},
   "source": [
    "**Конвертируем фреймы в видео**"
   ]
  },
  {
   "cell_type": "code",
   "execution_count": 36,
   "id": "1ac0d1b9",
   "metadata": {},
   "outputs": [
    {
     "name": "stdout",
     "output_type": "stream",
     "text": [
      "ffmpeg version 4.3.2-0york0~18.04 Copyright (c) 2000-2021 the FFmpeg developers\n",
      "  built with gcc 7 (Ubuntu 7.5.0-3ubuntu1~18.04)\n",
      "  configuration: --prefix=/usr --extra-version='0york0~18.04' --toolchain=hardened --libdir=/usr/lib/x86_64-linux-gnu --incdir=/usr/include/x86_64-linux-gnu --arch=amd64 --enable-gpl --disable-stripping --enable-avresample --disable-filter=resample --enable-gnutls --enable-ladspa --enable-libaom --enable-libass --enable-libbluray --enable-libbs2b --enable-libcaca --enable-libcdio --enable-libcodec2 --enable-libflite --enable-libfontconfig --enable-libfreetype --enable-libfribidi --enable-libgme --enable-libgsm --enable-libjack --enable-libmp3lame --enable-libmysofa --enable-libopenjpeg --enable-libopenmpt --enable-libopus --enable-libpulse --enable-librabbitmq --enable-librsvg --enable-librubberband --enable-libshine --enable-libsnappy --enable-libsoxr --enable-libspeex --enable-libsrt --enable-libssh --enable-libtheora --enable-libtwolame --enable-libvidstab --enable-libvorbis --enable-libvpx --enable-libwavpack --enable-libwebp --enable-libx265 --enable-libxml2 --enable-libxvid --enable-libzmq --enable-libzvbi --enable-lv2 --enable-omx --enable-openal --enable-opencl --enable-opengl --enable-sdl2 --enable-libzimg --enable-pocketsphinx --enable-libdc1394 --enable-libdrm --enable-libiec61883 --enable-chromaprint --enable-frei0r --enable-libx264 --enable-shared\n",
      "  libavutil      56. 51.100 / 56. 51.100\n",
      "  libavcodec     58. 91.100 / 58. 91.100\n",
      "  libavformat    58. 45.100 / 58. 45.100\n",
      "  libavdevice    58. 10.100 / 58. 10.100\n",
      "  libavfilter     7. 85.100 /  7. 85.100\n",
      "  libavresample   4.  0.  0 /  4.  0.  0\n",
      "  libswscale      5.  7.100 /  5.  7.100\n",
      "  libswresample   3.  7.100 /  3.  7.100\n",
      "  libpostproc    55.  7.100 / 55.  7.100\n",
      "Input #0, image2, from 'examples/frames/*.jpeg':\n",
      "  Duration: 00:00:03.00, start: 0.000000, bitrate: N/A\n",
      "    Stream #0:0: Video: mjpeg (Baseline), yuvj444p(pc, bt470bg/unknown/unknown), 1280x720, 30 fps, 30 tbr, 30 tbn, 30 tbc\n",
      "Stream mapping:\n",
      "  Stream #0:0 -> #0:0 (mjpeg (native) -> h264 (libx264))\n",
      "Press [q] to stop, [?] for help\n",
      "\u001b[1;36m[libx264 @ 0x556515b1cbc0] \u001b[0musing cpu capabilities: MMX2 SSE2Fast SSSE3 SSE4.2 AVX FMA3 BMI2 AVX2 AVX512\n",
      "\u001b[1;36m[libx264 @ 0x556515b1cbc0] \u001b[0mprofile High 4:4:4 Predictive, level 3.1, 4:4:4 8-bit\n",
      "\u001b[1;36m[libx264 @ 0x556515b1cbc0] \u001b[0m264 - core 155 r2917 0a84d98 - H.264/MPEG-4 AVC codec - Copyleft 2003-2018 - http://www.videolan.org/x264.html - options: cabac=1 ref=3 deblock=1:0:0 analyse=0x1:0x111 me=hex subme=7 psy=1 psy_rd=1.00:0.00 mixed_ref=1 me_range=16 chroma_me=1 trellis=1 8x8dct=0 cqm=0 deadzone=21,11 fast_pskip=1 chroma_qp_offset=4 threads=18 lookahead_threads=3 sliced_threads=0 nr=0 decimate=1 interlaced=0 bluray_compat=0 constrained_intra=0 bframes=3 b_pyramid=2 b_adapt=1 b_bias=0 direct=1 weightb=1 open_gop=0 weightp=2 keyint=250 keyint_min=25 scenecut=40 intra_refresh=0 rc_lookahead=40 rc=crf mbtree=1 crf=23.0 qcomp=0.60 qpmin=0 qpmax=69 qpstep=4 ip_ratio=1.40 aq=1:1.00\n",
      "Output #0, mp4, to 'examples/video_from_frames.mp4':\n",
      "  Metadata:\n",
      "    encoder         : Lavf58.45.100\n",
      "    Stream #0:0: Video: h264 (libx264) (avc1 / 0x31637661), yuvj444p(pc), 1280x720, q=-1--1, 30 fps, 15360 tbn, 30 tbc\n",
      "    Metadata:\n",
      "      encoder         : Lavc58.91.100 libx264\n",
      "    Side data:\n",
      "      cpb: bitrate max/min/avg: 0/0/0 buffer size: 0 vbv_delay: N/A\n",
      "frame=   90 fps= 79 q=-1.0 Lsize=    1063kB time=00:00:02.90 bitrate=3003.5kbits/s speed=2.56x    \n",
      "video:1061kB audio:0kB subtitle:0kB other streams:0kB global headers:0kB muxing overhead: 0.178126%\n",
      "\u001b[1;36m[libx264 @ 0x556515b1cbc0] \u001b[0mframe I:1     Avg QP:24.55  size:100551\n",
      "\u001b[1;36m[libx264 @ 0x556515b1cbc0] \u001b[0mframe P:23    Avg QP:25.13  size: 28077\n",
      "\u001b[1;36m[libx264 @ 0x556515b1cbc0] \u001b[0mframe B:66    Avg QP:31.14  size:  5150\n",
      "\u001b[1;36m[libx264 @ 0x556515b1cbc0] \u001b[0mconsecutive B-frames:  2.2%  0.0%  0.0% 97.8%\n",
      "\u001b[1;36m[libx264 @ 0x556515b1cbc0] \u001b[0mmb I  I16..4: 12.4%  0.0% 87.6%\n",
      "\u001b[1;36m[libx264 @ 0x556515b1cbc0] \u001b[0mmb P  I16..4:  2.0%  0.0%  4.0%  P16..4: 44.5% 26.1% 12.3%  0.0%  0.0%    skip:11.2%\n",
      "\u001b[1;36m[libx264 @ 0x556515b1cbc0] \u001b[0mmb B  I16..4:  0.1%  0.0%  0.2%  B16..8: 52.6%  6.4%  1.4%  direct: 0.7%  skip:38.5%  L0:42.9% L1:50.8% BI: 6.2%\n",
      "\u001b[1;36m[libx264 @ 0x556515b1cbc0] \u001b[0mcoded y,u,v intra: 71.5% 35.1% 26.5% inter: 10.6% 1.3% 1.2%\n",
      "\u001b[1;36m[libx264 @ 0x556515b1cbc0] \u001b[0mi16 v,h,dc,p: 11% 47% 19% 22%\n",
      "\u001b[1;36m[libx264 @ 0x556515b1cbc0] \u001b[0mi4 v,h,dc,ddl,ddr,vr,hd,vl,hu: 15% 37% 15%  5%  5%  5%  8%  5%  5%\n",
      "\u001b[1;36m[libx264 @ 0x556515b1cbc0] \u001b[0mWeighted P-Frames: Y:0.0% UV:0.0%\n",
      "\u001b[1;36m[libx264 @ 0x556515b1cbc0] \u001b[0mref P L0: 56.6% 16.3% 22.1%  5.0%\n",
      "\u001b[1;36m[libx264 @ 0x556515b1cbc0] \u001b[0mref B L0: 90.2%  8.2%  1.5%\n",
      "\u001b[1;36m[libx264 @ 0x556515b1cbc0] \u001b[0mref B L1: 97.6%  2.4%\n",
      "\u001b[1;36m[libx264 @ 0x556515b1cbc0] \u001b[0mkb/s:2896.49\n"
     ]
    }
   ],
   "source": [
    "frames_dir = 'examples/frames'\n",
    "video_path = 'examples/video_from_frames.mp4'\n",
    "\n",
    "! ffmpeg -pattern_type glob -framerate 30 -f image2 -i '{frames_dir}/*.jpeg' {video_path}"
   ]
  },
  {
   "cell_type": "markdown",
   "id": "3acd3b1f",
   "metadata": {},
   "source": [
    "**Перекодируем видео**"
   ]
  },
  {
   "cell_type": "code",
   "execution_count": 39,
   "id": "4b510369",
   "metadata": {},
   "outputs": [
    {
     "name": "stdout",
     "output_type": "stream",
     "text": [
      "ffmpeg version 4.3.2-0york0~18.04 Copyright (c) 2000-2021 the FFmpeg developers\n",
      "  built with gcc 7 (Ubuntu 7.5.0-3ubuntu1~18.04)\n",
      "  configuration: --prefix=/usr --extra-version='0york0~18.04' --toolchain=hardened --libdir=/usr/lib/x86_64-linux-gnu --incdir=/usr/include/x86_64-linux-gnu --arch=amd64 --enable-gpl --disable-stripping --enable-avresample --disable-filter=resample --enable-gnutls --enable-ladspa --enable-libaom --enable-libass --enable-libbluray --enable-libbs2b --enable-libcaca --enable-libcdio --enable-libcodec2 --enable-libflite --enable-libfontconfig --enable-libfreetype --enable-libfribidi --enable-libgme --enable-libgsm --enable-libjack --enable-libmp3lame --enable-libmysofa --enable-libopenjpeg --enable-libopenmpt --enable-libopus --enable-libpulse --enable-librabbitmq --enable-librsvg --enable-librubberband --enable-libshine --enable-libsnappy --enable-libsoxr --enable-libspeex --enable-libsrt --enable-libssh --enable-libtheora --enable-libtwolame --enable-libvidstab --enable-libvorbis --enable-libvpx --enable-libwavpack --enable-libwebp --enable-libx265 --enable-libxml2 --enable-libxvid --enable-libzmq --enable-libzvbi --enable-lv2 --enable-omx --enable-openal --enable-opencl --enable-opengl --enable-sdl2 --enable-libzimg --enable-pocketsphinx --enable-libdc1394 --enable-libdrm --enable-libiec61883 --enable-chromaprint --enable-frei0r --enable-libx264 --enable-shared\n",
      "  libavutil      56. 51.100 / 56. 51.100\n",
      "  libavcodec     58. 91.100 / 58. 91.100\n",
      "  libavformat    58. 45.100 / 58. 45.100\n",
      "  libavdevice    58. 10.100 / 58. 10.100\n",
      "  libavfilter     7. 85.100 /  7. 85.100\n",
      "  libavresample   4.  0.  0 /  4.  0.  0\n",
      "  libswscale      5.  7.100 /  5.  7.100\n",
      "  libswresample   3.  7.100 /  3.  7.100\n",
      "  libpostproc    55.  7.100 / 55.  7.100\n",
      "Input #0, mov,mp4,m4a,3gp,3g2,mj2, from 'examples/test.mp4':\n",
      "  Metadata:\n",
      "    major_brand     : isom\n",
      "    minor_version   : 512\n",
      "    compatible_brands: isomiso2avc1mp41\n",
      "    encoder         : Lavf58.45.100\n",
      "  Duration: 00:00:10.00, start: 0.000000, bitrate: 2778 kb/s\n",
      "    Stream #0:0(und): Video: h264 (High 4:4:4 Predictive) (avc1 / 0x31637661), yuv444p, 1280x720, 2775 kb/s, 30 fps, 30 tbr, 15360 tbn, 60 tbc (default)\n",
      "    Metadata:\n",
      "      handler_name    : VideoHandler\n",
      "Stream mapping:\n",
      "  Stream #0:0 -> #0:0 (h264 (native) -> h264 (libx264))\n",
      "Press [q] to stop, [?] for help\n",
      "\u001b[1;36m[libx264 @ 0x556e3cbdc300] \u001b[0musing cpu capabilities: MMX2 SSE2Fast SSSE3 SSE4.2 AVX FMA3 BMI2 AVX2 AVX512\n",
      "\u001b[1;36m[libx264 @ 0x556e3cbdc300] \u001b[0mprofile High 4:4:4 Predictive, level 3.1, 4:4:4 8-bit\n",
      "\u001b[1;36m[libx264 @ 0x556e3cbdc300] \u001b[0m264 - core 155 r2917 0a84d98 - H.264/MPEG-4 AVC codec - Copyleft 2003-2018 - http://www.videolan.org/x264.html - options: cabac=1 ref=3 deblock=1:0:0 analyse=0x1:0x111 me=hex subme=7 psy=1 psy_rd=1.00:0.00 mixed_ref=1 me_range=16 chroma_me=1 trellis=1 8x8dct=0 cqm=0 deadzone=21,11 fast_pskip=1 chroma_qp_offset=4 threads=18 lookahead_threads=3 sliced_threads=0 nr=0 decimate=1 interlaced=0 bluray_compat=0 constrained_intra=0 bframes=3 b_pyramid=2 b_adapt=1 b_bias=0 direct=1 weightb=1 open_gop=0 weightp=2 keyint=250 keyint_min=25 scenecut=40 intra_refresh=0 rc_lookahead=40 rc=crf mbtree=1 crf=23.0 qcomp=0.60 qpmin=0 qpmax=69 qpstep=4 ip_ratio=1.40 aq=1:1.00\n",
      "Output #0, mp4, to 'examples/test_converted.mp4':\n",
      "  Metadata:\n",
      "    major_brand     : isom\n",
      "    minor_version   : 512\n",
      "    compatible_brands: isomiso2avc1mp41\n",
      "    encoder         : Lavf58.45.100\n",
      "    Stream #0:0(und): Video: h264 (libx264) (avc1 / 0x31637661), yuv444p, 1280x720, q=-1--1, 30 fps, 15360 tbn, 30 tbc (default)\n",
      "    Metadata:\n",
      "      handler_name    : VideoHandler\n",
      "      encoder         : Lavc58.91.100 libx264\n",
      "    Side data:\n",
      "      cpb: bitrate max/min/avg: 0/0/0 buffer size: 0 vbv_delay: N/A\n",
      "frame=  300 fps=120 q=-1.0 Lsize=    3047kB time=00:00:09.90 bitrate=2521.6kbits/s speed=3.97x    \n",
      "video:3043kB audio:0kB subtitle:0kB other streams:0kB global headers:0kB muxing overhead: 0.143355%\n",
      "\u001b[1;36m[libx264 @ 0x556e3cbdc300] \u001b[0mframe I:2     Avg QP:21.99  size:108812\n",
      "\u001b[1;36m[libx264 @ 0x556e3cbdc300] \u001b[0mframe P:76    Avg QP:23.98  size: 25036\n",
      "\u001b[1;36m[libx264 @ 0x556e3cbdc300] \u001b[0mframe B:222   Avg QP:31.35  size:  4482\n",
      "\u001b[1;36m[libx264 @ 0x556e3cbdc300] \u001b[0mconsecutive B-frames:  1.0%  0.7%  1.0% 97.3%\n",
      "\u001b[1;36m[libx264 @ 0x556e3cbdc300] \u001b[0mmb I  I16..4:  9.0%  0.0% 91.0%\n",
      "\u001b[1;36m[libx264 @ 0x556e3cbdc300] \u001b[0mmb P  I16..4:  1.1%  0.0%  4.1%  P16..4: 48.8% 23.6%  9.9%  0.0%  0.0%    skip:12.6%\n",
      "\u001b[1;36m[libx264 @ 0x556e3cbdc300] \u001b[0mmb B  I16..4:  0.0%  0.0%  0.2%  B16..8: 52.5%  5.4%  1.2%  direct: 0.5%  skip:40.2%  L0:43.6% L1:51.4% BI: 5.0%\n",
      "\u001b[1;36m[libx264 @ 0x556e3cbdc300] \u001b[0mcoded y,u,v intra: 75.2% 37.7% 27.4% inter: 8.8% 1.3% 1.2%\n",
      "\u001b[1;36m[libx264 @ 0x556e3cbdc300] \u001b[0mi16 v,h,dc,p: 13% 40% 22% 25%\n",
      "\u001b[1;36m[libx264 @ 0x556e3cbdc300] \u001b[0mi4 v,h,dc,ddl,ddr,vr,hd,vl,hu: 16% 33% 15%  5%  6%  5%  9%  5%  5%\n",
      "\u001b[1;36m[libx264 @ 0x556e3cbdc300] \u001b[0mWeighted P-Frames: Y:0.0% UV:0.0%\n",
      "\u001b[1;36m[libx264 @ 0x556e3cbdc300] \u001b[0mref P L0: 62.5% 16.4% 16.4%  4.7%\n",
      "\u001b[1;36m[libx264 @ 0x556e3cbdc300] \u001b[0mref B L0: 94.2%  5.1%  0.7%\n",
      "\u001b[1;36m[libx264 @ 0x556e3cbdc300] \u001b[0mref B L1: 96.9%  3.1%\n",
      "\u001b[1;36m[libx264 @ 0x556e3cbdc300] \u001b[0mkb/s:2492.28\n"
     ]
    }
   ],
   "source": [
    "src = 'examples/test.mp4'\n",
    "dst = 'examples/test_converted.mp4'\n",
    "\n",
    "! ffmpeg -i {src} -codec:v libx264 {dst}"
   ]
  },
  {
   "cell_type": "markdown",
   "id": "3370d25c",
   "metadata": {},
   "source": [
    "**Вырезаем видео-сегмент**"
   ]
  },
  {
   "cell_type": "code",
   "execution_count": 40,
   "id": "17a55287",
   "metadata": {},
   "outputs": [
    {
     "name": "stdout",
     "output_type": "stream",
     "text": [
      "ffmpeg version 4.3.2-0york0~18.04 Copyright (c) 2000-2021 the FFmpeg developers\r\n",
      "  built with gcc 7 (Ubuntu 7.5.0-3ubuntu1~18.04)\r\n",
      "  configuration: --prefix=/usr --extra-version='0york0~18.04' --toolchain=hardened --libdir=/usr/lib/x86_64-linux-gnu --incdir=/usr/include/x86_64-linux-gnu --arch=amd64 --enable-gpl --disable-stripping --enable-avresample --disable-filter=resample --enable-gnutls --enable-ladspa --enable-libaom --enable-libass --enable-libbluray --enable-libbs2b --enable-libcaca --enable-libcdio --enable-libcodec2 --enable-libflite --enable-libfontconfig --enable-libfreetype --enable-libfribidi --enable-libgme --enable-libgsm --enable-libjack --enable-libmp3lame --enable-libmysofa --enable-libopenjpeg --enable-libopenmpt --enable-libopus --enable-libpulse --enable-librabbitmq --enable-librsvg --enable-librubberband --enable-libshine --enable-libsnappy --enable-libsoxr --enable-libspeex --enable-libsrt --enable-libssh --enable-libtheora --enable-libtwolame --enable-libvidstab --enable-libvorbis --enable-libvpx --enable-libwavpack --enable-libwebp --enable-libx265 --enable-libxml2 --enable-libxvid --enable-libzmq --enable-libzvbi --enable-lv2 --enable-omx --enable-openal --enable-opencl --enable-opengl --enable-sdl2 --enable-libzimg --enable-pocketsphinx --enable-libdc1394 --enable-libdrm --enable-libiec61883 --enable-chromaprint --enable-frei0r --enable-libx264 --enable-shared\r\n",
      "  libavutil      56. 51.100 / 56. 51.100\r\n",
      "  libavcodec     58. 91.100 / 58. 91.100\r\n",
      "  libavformat    58. 45.100 / 58. 45.100\r\n",
      "  libavdevice    58. 10.100 / 58. 10.100\r\n",
      "  libavfilter     7. 85.100 /  7. 85.100\r\n",
      "  libavresample   4.  0.  0 /  4.  0.  0\r\n",
      "  libswscale      5.  7.100 /  5.  7.100\r\n",
      "  libswresample   3.  7.100 /  3.  7.100\r\n",
      "  libpostproc    55.  7.100 / 55.  7.100\r\n",
      "Input #0, mov,mp4,m4a,3gp,3g2,mj2, from 'examples/test_converted.mp4':\r\n",
      "  Metadata:\r\n",
      "    major_brand     : isom\r\n",
      "    minor_version   : 512\r\n",
      "    compatible_brands: isomiso2avc1mp41\r\n",
      "    encoder         : Lavf58.45.100\r\n",
      "  Duration: 00:00:10.00, start: 0.000000, bitrate: 2496 kb/s\r\n",
      "    Stream #0:0(und): Video: h264 (High 4:4:4 Predictive) (avc1 / 0x31637661), yuv444p, 1280x720, 2492 kb/s, 30 fps, 30 tbr, 15360 tbn, 60 tbc (default)\r\n",
      "    Metadata:\r\n",
      "      handler_name    : VideoHandler\r\n",
      "Output #0, mp4, to 'examples/test_segment.mp4':\r\n",
      "  Metadata:\r\n",
      "    major_brand     : isom\r\n",
      "    minor_version   : 512\r\n",
      "    compatible_brands: isomiso2avc1mp41\r\n",
      "    encoder         : Lavf58.45.100\r\n",
      "    Stream #0:0(und): Video: h264 (High 4:4:4 Predictive) (avc1 / 0x31637661), yuv444p, 1280x720, q=2-31, 2492 kb/s, 30 fps, 30 tbr, 15360 tbn, 15360 tbc (default)\r\n",
      "    Metadata:\r\n",
      "      handler_name    : VideoHandler\r\n",
      "Stream mapping:\r\n",
      "  Stream #0:0 -> #0:0 (copy)\r\n",
      "Press [q] to stop, [?] for help\r\n",
      "frame=  212 fps=0.0 q=-1.0 Lsize=    2152kB time=00:00:01.96 bitrate=8964.6kbits/s speed= 575x    \r\n",
      "video:2149kB audio:0kB subtitle:0kB other streams:0kB global headers:0kB muxing overhead: 0.154785%\r\n"
     ]
    }
   ],
   "source": [
    "src = 'examples/test_converted.mp4'\n",
    "dst = 'examples/test_segment.mp4'\n",
    "\n",
    "! ffmpeg -ss 00:00:05.0 -i {src} -c copy -t 00:00:02.0 {dst}"
   ]
  },
  {
   "cell_type": "markdown",
   "id": "983996bc",
   "metadata": {},
   "source": [
    "**Конкатенация нескольких видео в один файл**"
   ]
  },
  {
   "cell_type": "code",
   "execution_count": 41,
   "id": "878c552f",
   "metadata": {},
   "outputs": [
    {
     "name": "stdout",
     "output_type": "stream",
     "text": [
      "ffmpeg version 4.3.2-0york0~18.04 Copyright (c) 2000-2021 the FFmpeg developers\n",
      "  built with gcc 7 (Ubuntu 7.5.0-3ubuntu1~18.04)\n",
      "  configuration: --prefix=/usr --extra-version='0york0~18.04' --toolchain=hardened --libdir=/usr/lib/x86_64-linux-gnu --incdir=/usr/include/x86_64-linux-gnu --arch=amd64 --enable-gpl --disable-stripping --enable-avresample --disable-filter=resample --enable-gnutls --enable-ladspa --enable-libaom --enable-libass --enable-libbluray --enable-libbs2b --enable-libcaca --enable-libcdio --enable-libcodec2 --enable-libflite --enable-libfontconfig --enable-libfreetype --enable-libfribidi --enable-libgme --enable-libgsm --enable-libjack --enable-libmp3lame --enable-libmysofa --enable-libopenjpeg --enable-libopenmpt --enable-libopus --enable-libpulse --enable-librabbitmq --enable-librsvg --enable-librubberband --enable-libshine --enable-libsnappy --enable-libsoxr --enable-libspeex --enable-libsrt --enable-libssh --enable-libtheora --enable-libtwolame --enable-libvidstab --enable-libvorbis --enable-libvpx --enable-libwavpack --enable-libwebp --enable-libx265 --enable-libxml2 --enable-libxvid --enable-libzmq --enable-libzvbi --enable-lv2 --enable-omx --enable-openal --enable-opencl --enable-opengl --enable-sdl2 --enable-libzimg --enable-pocketsphinx --enable-libdc1394 --enable-libdrm --enable-libiec61883 --enable-chromaprint --enable-frei0r --enable-libx264 --enable-shared\n",
      "  libavutil      56. 51.100 / 56. 51.100\n",
      "  libavcodec     58. 91.100 / 58. 91.100\n",
      "  libavformat    58. 45.100 / 58. 45.100\n",
      "  libavdevice    58. 10.100 / 58. 10.100\n",
      "  libavfilter     7. 85.100 /  7. 85.100\n",
      "  libavresample   4.  0.  0 /  4.  0.  0\n",
      "  libswscale      5.  7.100 /  5.  7.100\n",
      "  libswresample   3.  7.100 /  3.  7.100\n",
      "  libpostproc    55.  7.100 / 55.  7.100\n",
      "\u001b[0;35m[mov,mp4,m4a,3gp,3g2,mj2 @ 0x563e30e08cc0] \u001b[0mAuto-inserting h264_mp4toannexb bitstream filter\n",
      "Input #0, concat, from 'mylist.txt':\n",
      "  Duration: N/A, start: 0.000000, bitrate: 2775 kb/s\n",
      "    Stream #0:0(und): Video: h264 (High 4:4:4 Predictive) (avc1 / 0x31637661), yuv444p, 1280x720, 2775 kb/s, 30 fps, 30 tbr, 15360 tbn, 60 tbc\n",
      "    Metadata:\n",
      "      handler_name    : VideoHandler\n",
      "Output #0, mp4, to 'examples/concat.mp4':\n",
      "  Metadata:\n",
      "    encoder         : Lavf58.45.100\n",
      "    Stream #0:0(und): Video: h264 (High 4:4:4 Predictive) (avc1 / 0x31637661), yuv444p, 1280x720, q=2-31, 2775 kb/s, 30 fps, 30 tbr, 15360 tbn, 15360 tbc\n",
      "    Metadata:\n",
      "      handler_name    : VideoHandler\n",
      "Stream mapping:\n",
      "  Stream #0:0 -> #0:0 (copy)\n",
      "Press [q] to stop, [?] for help\n",
      "\u001b[0;35m[mov,mp4,m4a,3gp,3g2,mj2 @ 0x563e30e08cc0] \u001b[0mAuto-inserting h264_mp4toannexb bitstream filter\n",
      "\u001b[0;35m[mov,mp4,m4a,3gp,3g2,mj2 @ 0x563e30e0ea80] \u001b[0mAuto-inserting h264_mp4toannexb bitstream filter\n",
      "    Last message repeated 1 times\n",
      "frame= 1200 fps=0.0 q=-1.0 Lsize=   12877kB time=00:00:39.90 bitrate=2643.8kbits/s speed= 690x    \n",
      "video:12862kB audio:0kB subtitle:0kB other streams:0kB global headers:0kB muxing overhead: 0.117001%\n"
     ]
    }
   ],
   "source": [
    "src1 = 'examples/test.mp4'\n",
    "src2 = 'examples/test_converted.mp4'\n",
    "dst = 'examples/concat.mp4'\n",
    "\n",
    "! echo file {src1} >> mylist.txt \n",
    "! echo file {src2} >> mylist.txt\n",
    "! ffmpeg -f concat -safe 0 -i mylist.txt -c copy {dst}"
   ]
  },
  {
   "cell_type": "markdown",
   "id": "ea51c9c8",
   "metadata": {},
   "source": [
    "**Объединяем видео в вертикальный grid**"
   ]
  },
  {
   "cell_type": "code",
   "execution_count": 42,
   "id": "6cf08ca4",
   "metadata": {},
   "outputs": [
    {
     "name": "stdout",
     "output_type": "stream",
     "text": [
      "ffmpeg version 4.3.2-0york0~18.04 Copyright (c) 2000-2021 the FFmpeg developers\n",
      "  built with gcc 7 (Ubuntu 7.5.0-3ubuntu1~18.04)\n",
      "  configuration: --prefix=/usr --extra-version='0york0~18.04' --toolchain=hardened --libdir=/usr/lib/x86_64-linux-gnu --incdir=/usr/include/x86_64-linux-gnu --arch=amd64 --enable-gpl --disable-stripping --enable-avresample --disable-filter=resample --enable-gnutls --enable-ladspa --enable-libaom --enable-libass --enable-libbluray --enable-libbs2b --enable-libcaca --enable-libcdio --enable-libcodec2 --enable-libflite --enable-libfontconfig --enable-libfreetype --enable-libfribidi --enable-libgme --enable-libgsm --enable-libjack --enable-libmp3lame --enable-libmysofa --enable-libopenjpeg --enable-libopenmpt --enable-libopus --enable-libpulse --enable-librabbitmq --enable-librsvg --enable-librubberband --enable-libshine --enable-libsnappy --enable-libsoxr --enable-libspeex --enable-libsrt --enable-libssh --enable-libtheora --enable-libtwolame --enable-libvidstab --enable-libvorbis --enable-libvpx --enable-libwavpack --enable-libwebp --enable-libx265 --enable-libxml2 --enable-libxvid --enable-libzmq --enable-libzvbi --enable-lv2 --enable-omx --enable-openal --enable-opencl --enable-opengl --enable-sdl2 --enable-libzimg --enable-pocketsphinx --enable-libdc1394 --enable-libdrm --enable-libiec61883 --enable-chromaprint --enable-frei0r --enable-libx264 --enable-shared\n",
      "  libavutil      56. 51.100 / 56. 51.100\n",
      "  libavcodec     58. 91.100 / 58. 91.100\n",
      "  libavformat    58. 45.100 / 58. 45.100\n",
      "  libavdevice    58. 10.100 / 58. 10.100\n",
      "  libavfilter     7. 85.100 /  7. 85.100\n",
      "  libavresample   4.  0.  0 /  4.  0.  0\n",
      "  libswscale      5.  7.100 /  5.  7.100\n",
      "  libswresample   3.  7.100 /  3.  7.100\n",
      "  libpostproc    55.  7.100 / 55.  7.100\n",
      "Input #0, mov,mp4,m4a,3gp,3g2,mj2, from 'examples/test.mp4':\n",
      "  Metadata:\n",
      "    major_brand     : isom\n",
      "    minor_version   : 512\n",
      "    compatible_brands: isomiso2avc1mp41\n",
      "    encoder         : Lavf58.45.100\n",
      "  Duration: 00:00:10.00, start: 0.000000, bitrate: 2778 kb/s\n",
      "    Stream #0:0(und): Video: h264 (High 4:4:4 Predictive) (avc1 / 0x31637661), yuv444p, 1280x720, 2775 kb/s, 30 fps, 30 tbr, 15360 tbn, 60 tbc (default)\n",
      "    Metadata:\n",
      "      handler_name    : VideoHandler\n",
      "Input #1, mov,mp4,m4a,3gp,3g2,mj2, from 'examples/test_converted.mp4':\n",
      "  Metadata:\n",
      "    major_brand     : isom\n",
      "    minor_version   : 512\n",
      "    compatible_brands: isomiso2avc1mp41\n",
      "    encoder         : Lavf58.45.100\n",
      "  Duration: 00:00:10.00, start: 0.000000, bitrate: 2496 kb/s\n",
      "    Stream #1:0(und): Video: h264 (High 4:4:4 Predictive) (avc1 / 0x31637661), yuv444p, 1280x720, 2492 kb/s, 30 fps, 30 tbr, 15360 tbn, 60 tbc (default)\n",
      "    Metadata:\n",
      "      handler_name    : VideoHandler\n",
      "Stream mapping:\n",
      "  Stream #0:0 (h264) -> vstack:input0\n",
      "  Stream #1:0 (h264) -> vstack:input1\n",
      "  vstack -> Stream #0:0 (libx264)\n",
      "Press [q] to stop, [?] for help\n",
      "\u001b[1;36m[libx264 @ 0x561c3f1925c0] \u001b[0musing cpu capabilities: MMX2 SSE2Fast SSSE3 SSE4.2 AVX FMA3 BMI2 AVX2 AVX512\n",
      "\u001b[1;36m[libx264 @ 0x561c3f1925c0] \u001b[0mprofile High 4:4:4 Predictive, level 4.0, 4:4:4 8-bit\n",
      "\u001b[1;36m[libx264 @ 0x561c3f1925c0] \u001b[0m264 - core 155 r2917 0a84d98 - H.264/MPEG-4 AVC codec - Copyleft 2003-2018 - http://www.videolan.org/x264.html - options: cabac=1 ref=3 deblock=1:0:0 analyse=0x1:0x111 me=hex subme=7 psy=1 psy_rd=1.00:0.00 mixed_ref=1 me_range=16 chroma_me=1 trellis=1 8x8dct=0 cqm=0 deadzone=21,11 fast_pskip=1 chroma_qp_offset=4 threads=18 lookahead_threads=3 sliced_threads=0 nr=0 decimate=1 interlaced=0 bluray_compat=0 constrained_intra=0 bframes=3 b_pyramid=2 b_adapt=1 b_bias=0 direct=1 weightb=1 open_gop=0 weightp=2 keyint=250 keyint_min=25 scenecut=40 intra_refresh=0 rc_lookahead=40 rc=crf mbtree=1 crf=23.0 qcomp=0.60 qpmin=0 qpmax=69 qpstep=4 ip_ratio=1.40 aq=1:1.00\n",
      "Output #0, mp4, to 'examples/grid.mp4':\n",
      "  Metadata:\n",
      "    major_brand     : isom\n",
      "    minor_version   : 512\n",
      "    compatible_brands: isomiso2avc1mp41\n",
      "    encoder         : Lavf58.45.100\n",
      "    Stream #0:0: Video: h264 (libx264) (avc1 / 0x31637661), yuv444p, 1280x1440, q=-1--1, 30 fps, 15360 tbn, 30 tbc (default)\n",
      "    Metadata:\n",
      "      encoder         : Lavc58.91.100 libx264\n",
      "    Side data:\n",
      "      cpb: bitrate max/min/avg: 0/0/0 buffer size: 0 vbv_delay: N/A\n",
      "frame=  300 fps= 59 q=-1.0 Lsize=    5913kB time=00:00:09.90 bitrate=4892.9kbits/s speed=1.96x    \n",
      "video:5909kB audio:0kB subtitle:0kB other streams:0kB global headers:0kB muxing overhead: 0.074407%\n",
      "\u001b[1;36m[libx264 @ 0x561c3f1925c0] \u001b[0mframe I:2     Avg QP:21.90  size:215068\n",
      "\u001b[1;36m[libx264 @ 0x561c3f1925c0] \u001b[0mframe P:76    Avg QP:23.92  size: 48397\n",
      "\u001b[1;36m[libx264 @ 0x561c3f1925c0] \u001b[0mframe B:222   Avg QP:31.43  size:  8745\n",
      "\u001b[1;36m[libx264 @ 0x561c3f1925c0] \u001b[0mconsecutive B-frames:  1.0%  0.7%  1.0% 97.3%\n",
      "\u001b[1;36m[libx264 @ 0x561c3f1925c0] \u001b[0mmb I  I16..4:  9.2%  0.0% 90.8%\n",
      "\u001b[1;36m[libx264 @ 0x561c3f1925c0] \u001b[0mmb P  I16..4:  1.1%  0.0%  4.1%  P16..4: 49.0% 23.2%  9.4%  0.0%  0.0%    skip:13.2%\n",
      "\u001b[1;36m[libx264 @ 0x561c3f1925c0] \u001b[0mmb B  I16..4:  0.0%  0.0%  0.2%  B16..8: 52.1%  5.4%  1.2%  direct: 0.5%  skip:40.7%  L0:43.3% L1:51.7% BI: 5.0%\n",
      "\u001b[1;36m[libx264 @ 0x561c3f1925c0] \u001b[0mcoded y,u,v intra: 74.1% 36.8% 26.6% inter: 8.3% 1.3% 1.2%\n",
      "\u001b[1;36m[libx264 @ 0x561c3f1925c0] \u001b[0mi16 v,h,dc,p: 13% 42% 20% 25%\n",
      "\u001b[1;36m[libx264 @ 0x561c3f1925c0] \u001b[0mi4 v,h,dc,ddl,ddr,vr,hd,vl,hu: 16% 33% 15%  5%  6%  5%  9%  5%  5%\n",
      "\u001b[1;36m[libx264 @ 0x561c3f1925c0] \u001b[0mWeighted P-Frames: Y:0.0% UV:0.0%\n",
      "\u001b[1;36m[libx264 @ 0x561c3f1925c0] \u001b[0mref P L0: 62.9% 16.4% 16.0%  4.7%\n",
      "\u001b[1;36m[libx264 @ 0x561c3f1925c0] \u001b[0mref B L0: 94.3%  5.0%  0.7%\n",
      "\u001b[1;36m[libx264 @ 0x561c3f1925c0] \u001b[0mref B L1: 97.0%  3.0%\n",
      "\u001b[1;36m[libx264 @ 0x561c3f1925c0] \u001b[0mkb/s:4839.83\n"
     ]
    }
   ],
   "source": [
    "src1 = 'examples/test.mp4'\n",
    "src2 = 'examples/test_converted.mp4'\n",
    "dst = 'examples/grid.mp4'\n",
    "\n",
    "! ffmpeg -i {src1} -i {src2} -filter_complex vstack=inputs=2 -c:v libx264 -crf 23 {dst}"
   ]
  },
  {
   "cell_type": "markdown",
   "id": "ce4bad97",
   "metadata": {},
   "source": [
    "**Делаем GIF из видео**"
   ]
  },
  {
   "cell_type": "code",
   "execution_count": 43,
   "id": "91ac3fed",
   "metadata": {},
   "outputs": [
    {
     "name": "stdout",
     "output_type": "stream",
     "text": [
      "ffmpeg version 4.3.2-0york0~18.04 Copyright (c) 2000-2021 the FFmpeg developers\n",
      "  built with gcc 7 (Ubuntu 7.5.0-3ubuntu1~18.04)\n",
      "  configuration: --prefix=/usr --extra-version='0york0~18.04' --toolchain=hardened --libdir=/usr/lib/x86_64-linux-gnu --incdir=/usr/include/x86_64-linux-gnu --arch=amd64 --enable-gpl --disable-stripping --enable-avresample --disable-filter=resample --enable-gnutls --enable-ladspa --enable-libaom --enable-libass --enable-libbluray --enable-libbs2b --enable-libcaca --enable-libcdio --enable-libcodec2 --enable-libflite --enable-libfontconfig --enable-libfreetype --enable-libfribidi --enable-libgme --enable-libgsm --enable-libjack --enable-libmp3lame --enable-libmysofa --enable-libopenjpeg --enable-libopenmpt --enable-libopus --enable-libpulse --enable-librabbitmq --enable-librsvg --enable-librubberband --enable-libshine --enable-libsnappy --enable-libsoxr --enable-libspeex --enable-libsrt --enable-libssh --enable-libtheora --enable-libtwolame --enable-libvidstab --enable-libvorbis --enable-libvpx --enable-libwavpack --enable-libwebp --enable-libx265 --enable-libxml2 --enable-libxvid --enable-libzmq --enable-libzvbi --enable-lv2 --enable-omx --enable-openal --enable-opencl --enable-opengl --enable-sdl2 --enable-libzimg --enable-pocketsphinx --enable-libdc1394 --enable-libdrm --enable-libiec61883 --enable-chromaprint --enable-frei0r --enable-libx264 --enable-shared\n",
      "  libavutil      56. 51.100 / 56. 51.100\n",
      "  libavcodec     58. 91.100 / 58. 91.100\n",
      "  libavformat    58. 45.100 / 58. 45.100\n",
      "  libavdevice    58. 10.100 / 58. 10.100\n",
      "  libavfilter     7. 85.100 /  7. 85.100\n",
      "  libavresample   4.  0.  0 /  4.  0.  0\n",
      "  libswscale      5.  7.100 /  5.  7.100\n",
      "  libswresample   3.  7.100 /  3.  7.100\n",
      "  libpostproc    55.  7.100 / 55.  7.100\n",
      "Input #0, mov,mp4,m4a,3gp,3g2,mj2, from 'examples/grid.mp4':\n",
      "  Metadata:\n",
      "    major_brand     : isom\n",
      "    minor_version   : 512\n",
      "    compatible_brands: isomiso2avc1mp41\n",
      "    encoder         : Lavf58.45.100\n",
      "  Duration: 00:00:10.00, start: 0.000000, bitrate: 4843 kb/s\n",
      "    Stream #0:0(und): Video: h264 (High 4:4:4 Predictive) (avc1 / 0x31637661), yuv444p, 1280x1440, 4840 kb/s, 30 fps, 30 tbr, 15360 tbn, 60 tbc (default)\n",
      "    Metadata:\n",
      "      handler_name    : VideoHandler\n",
      "Stream mapping:\n",
      "  Stream #0:0 -> #0:0 (h264 (native) -> gif (native))\n",
      "Press [q] to stop, [?] for help\n",
      "Output #0, gif, to 'examples/test.gif':\n",
      "  Metadata:\n",
      "    major_brand     : isom\n",
      "    minor_version   : 512\n",
      "    compatible_brands: isomiso2avc1mp41\n",
      "    encoder         : Lavf58.45.100\n",
      "    Stream #0:0(und): Video: gif, bgr8, 512x576, q=2-31, 200 kb/s, 10 fps, 100 tbn, 10 tbc (default)\n",
      "    Metadata:\n",
      "      handler_name    : VideoHandler\n",
      "      encoder         : Lavc58.91.100 gif\n",
      "frame=   20 fps= 19 q=-0.0 Lsize=    3144kB time=00:00:01.91 bitrate=13486.1kbits/s dup=0 drop=38 speed=1.84x    \n",
      "video:3144kB audio:0kB subtitle:0kB other streams:0kB global headers:0kB muxing overhead: 0.000621%\n"
     ]
    }
   ],
   "source": [
    "src = 'examples/grid.mp4'\n",
    "dst_gif = 'examples/test.gif'\n",
    "\n",
    "! ffmpeg -i {src} -r 10 -vf scale=512:-1 -ss 00:00:01 -to 00:00:3 {dst_gif}"
   ]
  },
  {
   "cell_type": "code",
   "execution_count": null,
   "id": "295e155a",
   "metadata": {},
   "outputs": [],
   "source": []
  }
 ],
 "metadata": {
  "kernelspec": {
   "display_name": "Python 3.8",
   "language": "python",
   "name": "python3"
  },
  "language_info": {
   "codemirror_mode": {
    "name": "ipython",
    "version": 3
   },
   "file_extension": ".py",
   "mimetype": "text/x-python",
   "name": "python",
   "nbconvert_exporter": "python",
   "pygments_lexer": "ipython3",
   "version": "3.8.12"
  }
 },
 "nbformat": 4,
 "nbformat_minor": 5
}
